<?xml version="1.0" standalone="no"?>
<!DOCTYPE svg PUBLIC "-//W3C//DTD SVG 1.1//EN" "http://www.w3.org/Graphics/SVG/1.1/DTD/svg11.dtd" >
<svg xmlns="http://www.w3.org/2000/svg" xmlns:xlink="http://www.w3.org/1999/xlink" version="1.1">
<metadata></metadata>
<defs>
<font id="handregular" horiz-adv-x="512" >
<font-face units-per-em="2048" ascent="1638" descent="-410" />
<missing-glyph horiz-adv-x="500" />
<glyph />
<glyph />
<glyph horiz-adv-x="682" />
<glyph unicode="&#xd;" horiz-adv-x="681" />
<glyph unicode=" " />
<glyph unicode="!" horiz-adv-x="479" d="M104 1221q0 281 8.5 336t49.5 71q12 6 28 6q39 0 68 -32q16 -18 20.5 -75t8.5 -317q10 -477 18 -630q8 -150 8 -215q0 -53 -16 -76q-35 -43 -78 -43q-45 0 -69 41q-18 31 -32 301t-14 633zM170 -115q0 47 35 82q25 25 61 25q41 0 72 -31t31 -76t-31 -75.5t-72 -30.5 q-35 0 -61 26q-35 35 -35 80z" />
<glyph unicode="&#x22;" horiz-adv-x="1982" d="M115 1206v72l129 123q129 123 172 143q37 20 65 21q27 0 56.5 -17.5t46.5 -40.5q16 -27 30 -26q35 0 214.5 -108.5t218.5 -153.5q23 -23 22 -58q0 -37 -25.5 -64.5t-66.5 -27.5q-43 0 -164 82q-176 119 -203 119q-8 0 -8 -33q0 -35 2 -63q8 -119 64.5 -294t119.5 -282 q59 -98 200.5 -227t279.5 -211q80 -47 245.5 -113.5t221.5 -73.5q133 -14 133 -108q0 -31 -29 -60q-27 -25 -67 -24q-6 0 -20.5 1t-27.5 1q-113 8 -387 123q-281 119 -542 385q-102 104 -156.5 186t-103.5 207q-106 266 -121 449q-8 86 -15 86q-2 0 -14 -9 q-139 -100 -203 -100q-20 0 -45 10q-23 12 -22 86z" />
<glyph unicode="'" horiz-adv-x="434" d="M113 1403q-1 24 24 55q27 33 64 33q63 0 108 -86q23 -45 23 -152q0 -74 -4 -96t-23 -43q-25 -31 -63.5 -31t-63.5 29q-23 25 -31 119q-8 92 -20 121q-14 29 -14 51z" />
<glyph unicode="," horiz-adv-x="489" d="M108.5 22.5q0.5 30.5 20.5 63.5q25 41 53 127q29 89 54 109q23 20 53 20q37 0 64.5 -26.5t27.5 -67.5q0 -35 -22.5 -107.5t-49.5 -126.5q-43 -82 -112 -82q-37 0 -64 31q-25 29 -24.5 59.5z" />
<glyph unicode="." horiz-adv-x="479" d="M104 -2q0 47 33 80q20 20 34.5 25.5t51.5 5.5q61 0 102.5 -32t41.5 -79q0 -14 -2 -23q-16 -68 -111 -67h-10q-113 4 -131 47q-8 18 -9 43z" />
<glyph unicode=":" horiz-adv-x="497" d="M111 1196q-1 41 26 68q29 29 66 28q41 0 71 -35q27 -33 27 -77q0 -37 -18.5 -67t-49.5 -38q-6 -2 -18 -2q-41 0 -72.5 39t-31.5 84zM133 221q0 90 84 131q37 18 51 19q10 0 49 -15q29 -12 48.5 -41.5t19.5 -60.5q0 -29 -61.5 -82t-94.5 -53q-61 0 -82 43q-14 27 -14 59z " />
<glyph unicode=";" horiz-adv-x="1341" d="M115 -6q0 33 22.5 57.5t59.5 30.5q154 25 295 180q170 186 170 483q0 94 -15 183q-18 119 -26 133q-10 10 -56 -29q-164 -123 -227 -123q-35 0 -68 33q-29 29 -28 51q0 12 2 19q8 49 129 182q79 84 200 139q41 18 76 19q68 0 113 -70q27 -39 86 -59q86 -29 203.5 -81 t142.5 -73q33 -31 33 -70q0 -37 -31 -63.5t-55 -26.5q-16 0 -164 60q-141 57 -146 57q-2 0 -2 -10q0 -27 11 -98q10 -86 10 -162q0 -162 -29 -273q-51 -199 -198 -356q-102 -109 -208 -171t-184 -62q-55 0 -88 32q-29 29 -28 68z" />
<glyph unicode="?" horiz-adv-x="866" d="M115 1108q0 27 20 63q20 33 51.5 53t94.5 36q63 18 127 18q156 0 254 -109q96 -102 96 -223q0 -70 -33 -184q-27 -88 -27 -133q0 -33 23 -195q2 -10 2 -26q0 -23 -18 -50q-33 -45 -76 -45q-14 0 -31 6q-55 18 -74 144q-12 78 -12 145q0 102 29 195q27 82 26 131 q0 45 -24 82q-47 72 -142 71q-63 0 -127 -40q-41 -29 -73 -29q-35 0 -64 35q-23 27 -22 55zM580 -84q-1 34 24 59q27 27 60 27q35 0 62.5 -25.5t27.5 -60.5q0 -14 -11 -39q-14 -27 -30.5 -35t-55.5 -8q-35 0 -56 24.5t-21 57.5z" />
<glyph unicode="A" horiz-adv-x="1490" d="M113 53q0 41 45 172t98 240q82 170 244.5 448.5t199.5 311.5q41 35 82 35q76 0 152 -107q37 -51 101.5 -175t103.5 -216q78 -184 159.5 -440t81.5 -314q0 -35 -29.5 -61.5t-66.5 -26.5q-14 0 -31 6q-31 12 -46 44t-46 147q-39 143 -69 229q-33 98 -54 98q-47 0 -237 -16 q-166 -14 -252 -14q-8 0 -20.5 1t-16.5 1l-72 4l-26 -60q-55 -121 -107 -286q-20 -70 -42.5 -94.5t-63.5 -24.5q-39 0 -63.5 28.5t-24.5 69.5zM555 614q0 -10 39 -10t211 12.5t172 29t-88 189.5t-96 177q-10 0 -124 -190.5t-114 -207.5z" />
<glyph unicode="B" horiz-adv-x="966" d="M104 866v174q0 166 5.5 232.5t15.5 86t39 30.5q35 12 57 6q2 0 6 -1t6 -1q21 0 66 12q49 16 139 16q98 0 142 -20q88 -39 136 -124t48 -190q0 -106 -47 -202q-29 -61 -133 -166l-99 -98l107 -62q139 -78 201.5 -159t64.5 -187q0 -74 -29 -125q-61 -100 -200 -145 q-59 -18 -135 -19q-100 0 -170 29q-53 23 -101.5 70t-72.5 100q-29 59 -37.5 191t-8.5 552zM293 700l98 95q96 92 131 139q49 70 49 151q0 78 -43 121q-25 25 -67 25h-19q-61 0 -100 -14l-43 -13l-4 -250zM295 467q0 -53 2 -90q6 -119 23.5 -165t64.5 -75q39 -24 75 -24h3 q4 0 17.5 1t21.5 1q121 10 157 67q12 14 13 29q0 4 -8.5 32.5t-51.5 70.5t-82 63q-8 4 -54 31t-75 41q-96 55 -104 55q-2 0 -2 -37z" />
<glyph unicode="C" horiz-adv-x="1103" d="M111 479q0 49 6 94q16 123 80.5 250t152.5 213q53 51 130 95.5t132 52.5q53 8 60 10h4q25 0 98.5 -13.5t104.5 -23.5q49 -16 79.5 -49t30.5 -70t-31 -61q-25 -23 -59 -23q-33 0 -80 21q-49 20 -121 24h-18q-55 0 -107 -30q-123 -66 -208 -242q-66 -133 -66 -240 q0 -37 6 -79q35 -223 154 -287q25 -12 61 -12q25 0 41 2q76 8 146 49q72 43 102 43q25 0 51 -21q37 -31 37 -65q0 -61 -90 -119q-129 -80 -270 -80q-172 0 -271 109q-72 78 -113.5 201.5t-41.5 250.5z" />
<glyph unicode="D" horiz-adv-x="1144" d="M102 150l2 518q2 516 15 542q14 27 37 39q25 12 77 13q115 0 287 -52.5t262 -117.5q115 -84 168 -187q29 -59 56.5 -152.5t27.5 -136.5q0 -168 -87 -330.5t-226 -256.5q-137 -90 -252 -90q-6 0 -16.5 1t-14.5 1q-231 18 -307 155zM293 465q0 -252 4 -272q20 -55 158 -60 h18q49 0 113 37q119 72 187.5 192.5t68.5 249.5q0 102 -45 191q-41 82 -116.5 131t-231.5 96q-121 37 -138 37q-14 0 -18 -424v-178z" />
<glyph unicode="E" horiz-adv-x="1175" d="M109 162q0 47 10 160q47 500 122 711.5t220 262.5q33 12 268 15q170 0 204 -3t52 -20q25 -23 33 -57q2 -6 2 -17q0 -20 -27 -53l-30 -35l-222 -4q-219 -6 -241 -20q-35 -20 -74 -117.5t-61 -220.5l-7 -37l56 8q229 37 264 37q27 0 59.5 -29.5t32.5 -54.5 q0 -27 -19.5 -55.5t-41.5 -38.5q-43 -16 -314 -51l-63 -8l-13 -111q-14 -137 -16 -201l-4 -88l37 -10q23 -6 80 -6q172 0 385 35q150 26 176 26h2q25 0 55.5 -30.5t30.5 -65.5q0 -27 -23 -55q-25 -27 -168 -54q-246 -45 -423 -45q-156 0 -226 35q-68 35 -92 73t-24 124z" />
<glyph unicode="F" horiz-adv-x="995" d="M111 686q0 160 32 252q76 224 244 287q53 20 242 20l190 2l29 -30q31 -31 31 -60t-31 -59q-23 -23 -43.5 -27t-118.5 -4q-213 0 -270 -39q-27 -18 -68 -100q-29 -57 -37 -87t-10 -108l-6 -110l27 6q226 73 281 73h1q41 0 66 -38q20 -37 14 -60q-8 -39 -47 -62.5 t-156 -60.5q-150 -45 -157 -65q-2 -2 -2 -23q0 -66 12 -182q14 -143 14 -197q0 -6 -1 -13t-1 -9q-12 -63 -90 -64q-31 0 -55.5 18.5t-32.5 49.5q-4 12 -35 311q-22 247 -22 369v10z" />
<glyph unicode="G" horiz-adv-x="1361" d="M115 580q6 113 23.5 181t60.5 157q68 137 195 237t272 133q31 6 90 6q147 0 188 -20q51 -25 51 -84q0 -39 -30 -68q-20 -18 -156 -18q-94 0 -122 -5t-83 -32q-139 -68 -220 -207t-83 -311q0 -203 164 -359q51 -49 90 -66.5t94.5 -17.5t78 10.5t22.5 39.5q0 23 -21 88 q-22 65 -22 101v3q0 43 34.5 84t123.5 79t151 38q39 0 83 -24.5t70 -63.5q33 -45 57.5 -100.5t24.5 -86.5q0 -35 -26.5 -59.5t-65.5 -24.5q-35 0 -58.5 20.5t-53.5 82.5q-27 51 -37 59h-4q-16 0 -59.5 -12t-43.5 -18l12 -33q25 -63 25 -123q0 -80 -42 -140.5t-120 -88.5 q-53 -20 -104 -21q-6 0 -21.5 1t-23.5 1q-94 4 -164 39t-148 113q-127 127 -180 297q-24 77 -24 134q0 47 2 79z" />
<glyph unicode="H" horiz-adv-x="1308" d="M109 137q0 236 36 451q66 369 121 567q23 84 92 98q6 2 19 2q18 0 49 -28q31 -31 31 -56q0 -16 -2 -28q-4 -29 -44 -206t-44 -204l-9 -49l232 6q236 8 276 15q31 4 40 11t16 34q23 82 43 366q10 133 20 174.5t41 57.5q23 12 45 12q35 0 64.5 -28.5t40.5 -78.5 q28 -136 28 -566v-30q0 -594 -41 -727q-20 -65 -84 -65h-2q-70 0 -88 69q-2 4 -2 27q0 74 12 186q16 164 17 295v107l-33 -12q-33 -12 -207 -25.5t-315 -13.5h-137l-9 -39q-6 -37 -14 -248q-4 -143 -9 -180t-20 -58q-28 -36 -71 -36h-2q-53 0 -76 45q-14 29 -14 155z" />
<glyph unicode="I" horiz-adv-x="593" d="M109 172q0 182 33.5 418.5t86.5 431.5q47 172 63 216t34 62q25 25 59.5 25t63 -24.5t28.5 -61.5q0 -33 -45 -199q-119 -422 -131 -823q-4 -170 -15.5 -214t-49.5 -60q-25 -8 -31 -9q-8 0 -33 9q-41 16 -52 57t-11 172z" />
<glyph unicode="J" horiz-adv-x="1085" d="M115 367q0 12 4 28q20 59 88 60q37 0 61 -27q12 -12 37 -78q78 -229 225 -229q190 0 230 375q33 311 33 610v135l30 31q31 31 59.5 31t59.5 -33l33 -31l-6 -326q-8 -418 -42 -582.5t-134 -275.5q-55 -59 -109 -88q-39 -23 -63.5 -28t-92.5 -5q-90 0 -143 21.5t-117 85.5 q-59 59 -106 160.5t-47 165.5z" />
<glyph unicode="K" horiz-adv-x="1120" d="M111 -92l24 319q6 90 24.5 310.5t29 382t10.5 294.5q2 115 11 153t44 56q29 14 47 15q27 0 53 -25q20 -18 24.5 -39.5t8.5 -122.5v-59q0 -143 -8 -227q-6 -80 -6 -134q0 -27 2 -26q10 0 139 133t129 143q0 8 31 54q31 47 67 122q33 68 52.5 86.5t60.5 20.5 q37 0 62.5 -25.5t25.5 -62.5q0 -31 -39 -113t-84 -147q-96 -135 -151 -191q-57 -61 -58 -63q0 -6 62 -55q182 -143 297 -498q43 -131 43 -166q0 -33 -31 -63q-29 -29 -49 -29q-12 0 -19 2q-39 8 -63.5 45t-58.5 147q-84 260 -201 377q-80 80 -123 80q-14 0 -25 -8 q-74 -51 -86 -55q-8 -4 -30 -306q-18 -242 -32.5 -305t-55.5 -82q-16 -8 -35 -8q-41 0 -72 41z" />
<glyph unicode="L" horiz-adv-x="1202" d="M111 33q0 33 36 213q20 96 51 258t66 349t47 257q29 150 37 223q8 63 18.5 85t43.5 36q25 10 41 10q49 0 77 -63q8 -25 9 -58q0 -90 -45 -307q-72 -369 -80 -415q-63 -344 -68 -365q-16 -78 -16 -102q0 -2 10 -2q43 0 106 8q193 20 338 20q45 0 127 -4q88 -6 109.5 -11 t44.5 -26q29 -29 29 -55q0 -31 -31 -61l-31 -31h-172q-301 0 -528 -43q-78 -16 -125 -17q-4 0 -8 2h-7q-27 6 -53 38t-26 61z" />
<glyph unicode="M" horiz-adv-x="1527" d="M111 61q0 29 6 70q53 367 243 969q55 176 75.5 220t53.5 64q35 20 60 21q23 0 63 -21q74 -37 145.5 -164.5t110.5 -295.5q4 -12 6.5 -21.5t5.5 -17.5t6 -11.5t5 -3.5q12 2 158 183q106 133 153 175t86 42q72 0 109 -84q16 -39 16 -92q0 -78 -45 -334q-59 -334 -84 -699 q-18 -250 -39 -280q-25 -41 -70 -41t-79 43q-16 18 -17 59q0 47 8 152q31 436 80 711q37 211 37 221q0 4 -2 4q-8 0 -119 -135q-92 -115 -138 -157t-85 -42q-25 0 -49 12q-39 14 -58.5 52t-54.5 163q-78 281 -110 310q-2 2 -4 2q-12 0 -60 -142q-80 -252 -153.5 -561 t-73.5 -387q0 -39 -28.5 -65.5t-65.5 -26.5q-20 0 -41 10q-51 25 -51 98z" />
<glyph unicode="N" horiz-adv-x="1323" d="M109 53v135q0 309 69 691q29 160 51.5 205.5t77.5 60.5q8 2 23 2q55 0 115.5 -62.5t117.5 -179.5q33 -68 115 -271.5t131 -338.5q20 -57 33 -57q6 0 10 14q6 23 75.5 481.5t88.5 599.5q12 88 41 119q27 29 61.5 29t61.5 -27q24 -24 24 -76q0 -78 -41 -346 q-82 -563 -114.5 -742t-67.5 -257q-61 -131 -156 -131q-49 0 -82 45q-20 33 -94 235q-66 180 -159 412.5t-105 245.5q-10 10 -18 6q-8 -8 -28 -143.5t-30 -235.5q-10 -109 -10 -256q0 -135 -16 -166q-29 -53 -76 -53q-37 0 -68 31z" />
<glyph unicode="O" horiz-adv-x="1275" d="M113 465q0 27 2 39q20 231 204 428q117 125 220 143q42 8 71 33q28 22 59 22h3q25 0 49 -12q41 -27 108 -86q164 -139 252 -294.5t88 -301.5q0 -98 -43 -184q-35 -70 -108.5 -144.5t-136.5 -105.5q-123 -59 -265 -59q-92 0 -170 26q-143 51 -238 193.5t-95 302.5z M307 438q0 -61 35 -127q98 -180 281 -180q23 0 34 2q123 12 209 92q111 102 111 217q-2 84 -60.5 192t-154.5 202q-43 39 -62.5 52t-46 13t-75.5 -12q-49 -10 -115 -80t-111 -158q-33 -63 -39 -89.5t-6 -92.5v-31z" />
<glyph unicode="P" horiz-adv-x="1288" d="M111 53v31q2 84 15 161t62 285q59 242 80 365q53 293 113 453q29 74 81.5 125t115.5 67q49 12 100 12q176 0 326 -145q170 -168 170 -399q0 -233 -168 -381q-115 -102 -437 -201q-121 -37 -202 -59q-20 -4 -26.5 -18.5t-18.5 -80.5q-12 -59 -23 -172q-8 -96 -27.5 -126.5 t-74.5 -30.5q-33 0 -62 28q-25 27 -24 86zM401 575h2q18 0 160 48.5t193 70.5q229 106 229 310q0 31 -6 61q-12 63 -33 102q-23 43 -71.5 96.5t-83.5 69.5q-49 27 -129 27q-16 0 -29 -4q-49 -20 -85 -123t-93 -385q-10 -57 -24.5 -127t-22 -105.5t-7.5 -40.5z" />
<glyph unicode="Q" horiz-adv-x="1570" d="M113 641q0 117 5 152.5t27 103.5q106 299 308 408q66 37 82 65q14 29 34 41q16 10 76 10q98 0 154 -20q150 -51 297 -162q229 -176 338 -489q28 -83 28 -206v-9q-2 -137 -26 -207q-45 -121 -121 -219l-37 -52l49 -73q57 -84 57 -127q0 -29 -24 -54q-26 -26 -65 -26h-3 q-31 0 -53 16q-20 14 -65 78q-33 51 -48 55q-4 2 -10 2q-18 0 -90 -30q-137 -55 -272 -56q-27 0 -39 2q-219 16 -381 179q-84 82 -129 174q-51 106 -70.5 201.5t-21.5 242.5zM297 649q0 -276 126 -444t333 -170q61 0 139 17.5t111 37.5q8 6 8 14q0 25 -80 125 q-55 72 -55 109q0 25 22 53q20 29 66 29q43 0 72.5 -22.5t76.5 -90.5q48 -67 55 -67q19 0 59 94q38 92 46 160q2 12 2 41q0 156 -104.5 330t-258.5 268q-82 49 -112 61q-37 16 -55 0q-20 -20 -84 -27q-98 -8 -167 -63t-126 -168q-74 -145 -74 -287z" />
<glyph unicode="R" horiz-adv-x="1200" d="M111 133q0 49 10 152q70 633 403 934q66 59 94.5 79.5t81.5 40.5q61 25 136 25q68 0 106 -21q117 -57 117 -186q0 -158 -174 -342q-90 -94 -90 -100t57 -99q80 -127 117 -215t82 -256q39 -150 39 -202q0 -43 -23 -66q-41 -37 -78 -37q-39 0 -61 37q-16 31 -54 178 q-39 156 -74.5 243t-109.5 210q-92 160 -92 211q0 41 26.5 81t96.5 113q147 164 147 234q0 16 -6 21.5t-33 5.5q-94 0 -213.5 -127t-191.5 -304q-53 -129 -88 -306t-37 -316q0 -63 -4 -79.5t-27 -39.5q-31 -31 -59 -31q-14 0 -41 11q-57 27 -57 151z" />
<glyph unicode="S" horiz-adv-x="1220" d="M115 457q0 37 23.5 60.5t64.5 23.5q35 0 64.5 -27t105.5 -125q115 -150 193.5 -222.5t166.5 -105.5q41 -16 76 -16q39 0 68 31q49 57 49 153q0 84 -39 164q-82 170 -242 350q-162 182 -194 287q-20 61 -21 121q0 195 215 252q45 10 88 10q133 0 258 -62.5t125 -133.5 q0 -57 -45 -80q-27 -14 -45 -15q-25 0 -80 35q-109 68 -209 68q-57 0 -94 -25q-27 -20 -27 -53q0 -86 150 -254q131 -147 224 -299t114 -250q10 -57 10 -106q0 -115 -39 -193q-31 -68 -61.5 -103.5t-79.5 -60.5q-51 -26 -116 -26h-5q-205 0 -416 211q-53 53 -144 166.5 t-122 164.5q-16 27 -16 60z" />
<glyph unicode="T" horiz-adv-x="1122" d="M115 1145q0 33 30 61l31 28l285 -7q233 -6 383 -6q72 0 90 -4.5t41 -26.5q31 -31 31 -66q0 -66 -80 -84q-37 -10 -144 -10q-104 0 -104 -4q0 -10 -10 -82q-4 -29 -17 -158q-4 -66 -61.5 -403.5t-69.5 -370.5q-20 -57 -80 -57q-39 0 -69 31q-23 23 -25 32q-2 6 -2 19 q0 43 59 375q96 545 97 622q0 6 -135 6q-147 0 -198.5 21.5t-51.5 83.5z" />
<glyph unicode="U" horiz-adv-x="1384" d="M111 604q0 160 20 369q14 162 26.5 206t41.5 58q25 10 39 10q33 0 59 -30q31 -33 31 -130q0 -61 -9 -126q-22 -185 -22 -322v-12q0 -401 147 -490q35 -18 74 -18q78 0 161 55t124 137q76 158 166 458t106 448q13 108 74 133q20 10 27 10l36 -14q57 -25 58 -101 q0 -29 -6 -69q-25 -176 -114 -466t-167 -450q-37 -80 -60.5 -114.5t-64.5 -71.5q-72 -63 -145 -101q-57 -29 -84 -34t-105 -5t-101.5 4.5t-62.5 26.5q-172 96 -229 367q-20 102 -20 272z" />
<glyph unicode="V" horiz-adv-x="1075" d="M111 1114q0 49 12 78q27 57 84 57q43 0 72 -35q20 -25 20 -94q0 -121 24.5 -434t34.5 -321q2 -2 4 -3q4 0 68 154q164 418 318 760q36 81 67 104q29 23 57 23q33 0 60 -27q24 -24 24 -56q0 -46 -45 -149q-162 -365 -338 -806q-94 -238 -127.5 -308.5t-66.5 -95.5 q-24 -22 -63 -22h-3q-72 0 -98 61q-14 39 -59 416q-12 109 -33 430q-12 219 -12 268z" />
<glyph unicode="W" horiz-adv-x="1476" d="M109 590v41q2 426 36 463q32 29 61 29l1 -1q29 0 55 -22l31 -25l6 -397q6 -399 27 -455q23 -63 43 -63q27 0 110 159q55 104 84 137t72 40q8 2 22 2q49 0 87 -40t100 -153q47 -92 61 -92q20 0 94 210t127 427q10 41 22.5 91t21 83t10.5 41q12 39 44.5 59.5t49.5 20.5 q12 0 37 -10q51 -25 51 -95q-2 -82 -101.5 -419.5t-154.5 -448.5q-84 -168 -195 -168q-63 0 -131 62q-45 41 -80 106q-33 61 -41 61q-6 0 -47 -73q-115 -201 -245 -201q-78 0 -150 78q-61 72 -84.5 186.5t-23.5 366.5z" />
<glyph unicode="X" horiz-adv-x="1112" d="M115 10q0 16 2 25q14 78 227 360q111 141 111 154q0 20 -86 166q-147 254 -152 321q0 69 53 94q25 12 45 13q61 0 95 -92q14 -39 72.5 -146.5t90.5 -156.5q4 -6 9 -7q12 0 98 113q170 225 215 225q25 0 55.5 -15t36.5 -32q8 -29 8 -39q0 -47 -104 -178 q-104 -133 -152 -201l-49 -67l31 -58q37 -68 129 -219q100 -166 100 -207q0 -25 -26.5 -51t-63.5 -26t-63 24q-25 20 -123 185q-90 152 -105 165h-2q-12 0 -88 -101t-137 -202q-66 -102 -74 -110q-20 -27 -57 -27q-23 0 -41 8q-55 23 -55 82z" />
<glyph unicode="Y" horiz-adv-x="1234" d="M119 -205q0 35 43 109q33 53 88 170q33 72 121 225l75 129l-36 78q-76 158 -117 395q-45 260 -45 434q0 35 2 45q8 39 32.5 63.5t57.5 24.5q35 0 66 -30q20 -20 25 -37t5 -62q0 -152 49.5 -425t75.5 -273q18 0 250 440q92 174 134 232.5t75 58.5q23 0 52.5 -15.5 t35.5 -31.5q8 -25 8 -37q0 -53 -145 -327q-184 -346 -271 -480q-49 -74 -152.5 -257t-119.5 -226q-23 -57 -76 -145.5t-80 -112.5q-27 -27 -65 -27q-41 0 -66 31q-23 27 -22 51z" />
<glyph unicode="Z" horiz-adv-x="1591" d="M115 1149q0 76 67 96q51 16 516 88q35 6 66 6q43 0 100 -14q129 -37 129 -192q0 -76 -28 -162q-6 -16 -10.5 -34.5t-6.5 -28t0 -11.5q10 0 182 68q160 63 201 63q31 0 58 -27q22 -22 22 -56q0 -42 -27 -68q-33 -29 -284 -129q-256 -104 -271 -130q-37 -74 -151.5 -320.5 t-112.5 -248.5h4q68 0 713 172q78 20 111 21q53 0 77 -52q10 -20 11 -36q0 -14 -8 -31q-12 -33 -35 -47q-18 -12 -279.5 -83t-423.5 -108q-150 -31 -235 -35h-88l-39 39q-35 39 -35 78q0 68 147 371q92 195 93 205h-3q-18 0 -98 -29q-90 -33 -135 -33q-39 0 -69.5 31 t-30.5 59q0 20 14 47q10 18 49 36t168 61q199 68 213 78q20 14 69.5 153t49.5 178v29l-72 -8q-94 -10 -278 -43q-203 -37 -246 -37q-41 0 -67.5 23.5t-26.5 60.5z" />
<glyph unicode="a" horiz-adv-x="1249" d="M111 240q0 106 57 231q84 174 219 283.5t301 136.5q31 6 76 6q8 0 21.5 -1t19.5 -1q59 -4 88 -37q27 -29 27 -57q0 -31 -29 -60q-30 -30 -84 -30h-4q-203 0 -350 -160q-152 -164 -152 -313q0 -29 6 -54q10 -57 21 -63l2 -2h4q37 0 110 67q47 43 134 158q70 92 104.5 122 t75.5 30q2 0 10 -1t12 -1q47 -4 79 -31t73 -94q47 -76 119 -152q70 -74 82 -104q6 -14 6 -31q0 -37 -28 -63.5t-64 -26.5q-14 0 -21 2q-33 8 -109.5 85t-109.5 136t-39 59t-84 -104q-188 -246 -358 -246q-80 0 -135.5 62.5t-73.5 181.5q-6 37 -6 72z" />
<glyph unicode="b" horiz-adv-x="1005" d="M111 299v63q4 174 24 424q23 279 23 365q0 61 3.5 78.5t26.5 40.5q30 30 62 30h2q31 0 59 -24q20 -16 27.5 -39t7.5 -84q0 -104 -27 -457l-6 -98l25 6q25 6 129 14q25 2 61 3q57 0 113 -15q115 -31 186.5 -119t71.5 -198q0 -203 -194 -299q-115 -55 -226 -56 q-113 0 -203 57.5t-139 162.5q-26 53 -26 139v6zM297 346q0 -27 8 -80q10 -55 49 -92t92 -45q8 -2 29 -2q78 0 148 33q84 43 84 129q0 80 -74 117q-43 22 -126 22h-7q-70 0 -131 -16q-49 -14 -58.5 -21.5t-13.5 -32.5v-12z" />
<glyph unicode="c" horiz-adv-x="940" d="M113 430v41q8 154 102 274q64 82 166 119q47 16 113 17q117 0 216 -52.5t99 -121.5q0 -27 -30.5 -58t-57.5 -31q-29 0 -84 33q-70 41 -145 41q-16 0 -37 -4q-31 -8 -69 -44t-60 -79q-27 -53 -27 -137q0 -55 12 -98q20 -76 92 -142.5t132 -66.5q37 0 86 26q98 55 122 56 q12 0 19 -2q31 -8 50 -33t19 -55q0 -76 -137 -144q-47 -23 -73.5 -29t-85.5 -6q-88 0 -146.5 28t-128.5 101q-78 84 -112.5 169t-34.5 198z" />
<glyph unicode="d" horiz-adv-x="1021" d="M111 276q0 109 15 169.5t60 129.5q35 51 35 66q0 10 60 61q117 106 260 119l80 6l49 301q39 233 54 296t38 77q16 10 55 10q31 0 59.5 -21.5t28.5 -55.5q0 -53 -64.5 -440.5t-92.5 -506.5q-35 -141 -95.5 -275t-115.5 -189q-82 -82 -179 -82q-139 0 -221 153 q-18 37 -22 65.5t-4 116.5zM297 281q0 -55 15.5 -98.5t37.5 -47.5h4q20 0 50 29t49 65q35 72 83 216.5t48 179.5q0 6 -17 6q-41 0 -86 -21q-80 -37 -131 -130t-53 -199z" />
<glyph unicode="e" horiz-adv-x="894" d="M111 426q0 53 20 115q35 106 99.5 185t144.5 116q53 24 98 24h4q84 0 138.5 -66.5t54.5 -158.5q0 -27 -2 -41q-10 -76 -95.5 -167t-154.5 -101q-4 0 -10.5 -1t-8.5 -1q-29 0 -61 24l-41 29l8 -59q10 -82 52 -144.5t87 -62.5q66 0 152 78q57 51 104 51q23 0 41 -8 q16 -6 30.5 -33t14.5 -53q0 -10 -2 -15q-8 -33 -66.5 -87t-117.5 -83q-82 -41 -156 -41q-51 0 -102 23q-215 102 -229 411q-2 27 -2 66zM328 496q8 0 53 26q41 29 70.5 64.5t29.5 60.5q0 20 -16 21q-25 0 -68 -47q-73 -81 -73 -118q0 -7 4 -7z" />
<glyph unicode="f" horiz-adv-x="1290" d="M141 506q16 16 35 21t74 5h31q49 0 61 8.5t29 49.5q25 70 61 139q166 334 352 383q47 12 95 12q133 0 231 -88q63 -57 64 -100q0 -18 -13 -41q-23 -47 -80 -47q-37 0 -71 29q-70 59 -140 59q-39 0 -87 -38t-91 -101q-39 -57 -85 -142.5t-46 -101.5q0 -10 121 -10 q88 0 109.5 -3t44.5 -24q34 -28 34 -68v-2q0 -39 -34 -67q-25 -20 -48.5 -23.5t-130.5 -3.5q-150 0 -155 -10q-4 -6 -13 -178q-4 -117 -9 -145.5t-21 -45.5q-24 -24 -59 -24h-3q-39 0 -65 26q-16 16 -20.5 37t-4.5 105v59v176h-69q-70 0 -97 27q-27 25 -27 62q0 40 27 65z " />
<glyph unicode="g" horiz-adv-x="1114" d="M115 -23q0 37 26.5 59.5t69.5 22.5q31 0 53.5 -17t102.5 -99q86 -88 122.5 -113t85.5 -25q45 0 87.5 48.5t68.5 128.5q51 162 82 389q10 86 10 166q0 63 -6 63t-69 -55q-68 -59 -123 -92q-59 -37 -136 -41q-8 0 -21 -1t-17 -1q-43 0 -80 18q-141 74 -142 250 q0 170 136 305q100 98 225 131q59 16 112 16q45 0 84 -14q57 -25 58 -78q0 -37 -31 -67.5t-88 -30.5q-111 0 -199 -67.5t-102 -163.5q-4 -29 -4 -39q0 -61 51 -68h8q55 0 205 141q82 78 115 101q25 12 51 12q45 0 83 -34t56 -93q18 -61 19 -201q0 -164 -25 -299 q-47 -274 -108.5 -402t-172.5 -181q-68 -33 -110 -33q-4 0 -16.5 1t-20.5 1q-86 4 -145.5 39t-163.5 139q-113 117 -123 144q-8 29 -8 40z" />
<glyph unicode="h" horiz-adv-x="1062" d="M104 197q0 31 7 71q10 82 14 584q4 492 12 534q8 37 31 60q27 27 57 27q35 0 66 -31l31 -31v-874l43 38q96 88 208 89q104 0 172 -80q51 -63 108.5 -200.5t88.5 -272.5q10 -41 10 -80q0 -59 -53 -84q-18 -10 -37 -10q-14 0 -33 8q-31 12 -46 42.5t-42 131.5 q-41 164 -90 260t-88 96q-18 0 -71 -49q-68 -61 -160 -227q-70 -119 -133 -119q-27 0 -54 18q-41 27 -41 99z" />
<glyph unicode="i" horiz-adv-x="645" d="M113 23q0 31 71 268q59 195 86 309q12 55 12.5 69.5t-12.5 32.5q-14 20 -14 48q0 67 74 96q25 8 37 8q47 0 82 -39q28 -30 28 -94q0 -41 -9 -95t-27.5 -127t-34 -124t-40 -137t-32.5 -111q-35 -123 -58.5 -158t-70.5 -35q-39 0 -65.5 26t-26.5 63zM350 1138.5 q0 28.5 31 59.5t59 31q27 0 58.5 -31t31.5 -59.5t-31.5 -59t-58.5 -30.5q-29 0 -59.5 30.5t-30.5 59z" />
<glyph unicode="j" horiz-adv-x="813" d="M119 -227q0 47 30.5 69.5t137.5 53.5q150 43 202 139q23 41 27 65.5t4 118.5q0 174 -8 303q-4 102 -4 121q0 66 10 90.5t41 36.5q27 10 43 10q37 0 66 -35q16 -20 21 -51.5t13 -161.5q8 -168 9 -280v-47q0 -100 -4.5 -132t-24.5 -83q-57 -135 -178 -211 q-43 -29 -145.5 -61.5t-145.5 -32.5q-39 0 -66.5 26.5t-27.5 61.5zM457 989q0 51 37 74q23 12 43 12q37 0 66.5 -25.5t29.5 -60.5q0 -33 -26.5 -58.5t-59.5 -25.5q-61 0 -84 53q-6 16 -6 31z" />
<glyph unicode="k" horiz-adv-x="956" d="M111 10q0 35 34 226q80 430 97 1019q4 72 8 89.5t24 35.5q27 25 60 25q35 0 65 -31q23 -23 27 -41t4 -88q0 -90 -10 -293.5t-17 -228.5q-2 -6 -2 -14q0 -10 7 -11q18 0 84 88q70 90 137 164q70 74 108 82q8 2 23 2q23 0 51.5 -28.5t28.5 -51.5q0 -12 -2 -20 q-8 -41 -50 -86l-126 -154l-84 -102l30 -47q82 -133 107 -400q4 -31 4 -77q0 -80 -47 -103q-27 -14 -49 -14q-29 0 -56 26q-29 29 -37 109q-10 117 -31.5 220.5t-35.5 111.5h-2l-2 2q-16 0 -78 -109q-43 -72 -66 -200q-20 -102 -35.5 -134t-50.5 -49q-18 -6 -34 -6 q-55 0 -78 53q-6 16 -6 35z" />
<glyph unicode="l" horiz-adv-x="518" d="M111 14q0 19 16 154q59 438 86 858q8 139 15.5 176t23.5 53q25 25 61 25q47 0 72 -35q20 -29 21 -96v-51q-4 -217 -54.5 -652.5t-75.5 -480.5q-25 -43 -75 -43q-57 0 -82 53q-8 20 -8 39z" />
<glyph unicode="m" horiz-adv-x="1482" d="M111 133q0 41 2 66q10 174 47 342t82 252q6 12 20 38.5t19.5 36l16.5 28.5t20.5 27.5t24.5 21.5t32.5 22.5t40.5 19.5q35 14 67 14q41 0 76 -16q86 -41 129 -180q23 -74 31 -74q6 0 37 27q88 76 182 76q98 0 192 -89q80 -74 126.5 -180t86.5 -317q31 -160 31 -203 t-31 -68q-28 -26 -57 -26h-2q-27 0 -49 20q-25 20 -36 56t-40 176q-41 199 -83 297t-103 131l-39 20l-45 -35q-104 -76 -138 -94t-73 -18q-35 0 -50.5 6t-37.5 33q-35 35 -47 84q-43 172 -66 172q-10 0 -28 -19q-27 -27 -31 -43q0 -6 -29 -75q-27 -63 -53.5 -215t-32.5 -275 q-4 -92 -10 -116.5t-27 -45.5q-29 -29 -55 -28q-23 0 -49 14q-51 25 -51 137z" />
<glyph unicode="n" horiz-adv-x="1079" d="M111 225q0 147 75 305q39 82 107 154t123 92q41 14 106 15q96 0 152 -27q84 -41 149.5 -138.5t98.5 -224.5q16 -57 33.5 -204.5t17.5 -210.5q0 -18 -2 -23q-25 -67 -88 -67h-2q-41 0 -68 32q-27 35 -27 49q0 39 -18 189.5t-29 189.5q-29 113 -83 180.5t-113 67.5 q-80 0 -142 -84q-84 -113 -100 -268q-12 -104 -22 -123q-20 -43 -76 -43q-39 0 -66 27q-18 16 -22 34.5t-4 77.5z" />
<glyph unicode="o" horiz-adv-x="974" d="M111 391v27q2 51 12 79.5t45 98.5q43 82 102.5 151t102.5 87q20 10 67 10q70 0 115 -23q39 -18 121 -105t117 -145q75 -125 75 -230q0 -26 -2 -36q-18 -193 -207 -280q-76 -37 -163 -37q-158 0 -271.5 115.5t-113.5 287.5zM299 389q0 -41 24.5 -95t55.5 -77 q47 -39 114.5 -39t120.5 39q61 45 62 117q0 21 -2 31q-8 57 -72.5 144t-124.5 132l-28 18l-43 -47q-45 -53 -76 -116.5t-31 -106.5z" />
<glyph unicode="p" horiz-adv-x="1097" d="M113 -125q0 143 56 375.5t126 351.5q59 104 147 186t170 107q41 14 111 14q59 0 100 -12q45 -14 94.5 -63.5t61.5 -94.5q8 -25 8 -61q0 -76 -35 -141q-59 -98 -256 -232q-127 -86 -174 -86q-23 0 -43 12q-31 16 -43 50q-6 16 -6 28q0 29 31 58.5t114 85.5 q221 147 222 215q0 20 -16.5 36.5t-45.5 16.5q-4 0 -12 -1t-14 -1q-72 -6 -143.5 -71.5t-125.5 -176.5q-47 -96 -87 -265t-48 -298q-6 -88 -19.5 -122t-45.5 -48q-14 -6 -33 -6q-55 0 -80 53q-14 33 -14 90z" />
<glyph unicode="q" horiz-adv-x="1284" d="M245.5 815.5q132.5 149.5 329.5 200.5q76 20 197 20h51q49 0 64.5 -5t36.5 -25q28 -28 28 -56v-2q0 -14 -10 -41q-14 -33 -49 -44t-135 -17q-111 -8 -174.5 -27.5t-130.5 -68.5q-61 -45 -107.5 -119t-46.5 -125q0 -29 20.5 -63.5t45 -47t63.5 -12.5q70 0 147 33 q57 27 164 129q72 70 96.5 85t55.5 15q115 0 115 -129q0 -25 -2 -37q-14 -131 -86 -434q-27 -115 -27 -123l20 29l27 45q47 84 78 114.5t71 30.5q31 0 53.5 -18.5t28.5 -48.5q0 -2 1 -6.5t1 -6.5q0 -29 -73 -174q-78 -154 -107 -188q-63 -76 -141 -76q-55 0 -99 40t-61 110 q-4 25 -4 43q0 88 48 287.5t48 205.5t-17 -2t-44 -26q-78 -49 -134.5 -65.5t-144.5 -16.5h-36q-68 0 -123 26q-98 51 -144 154q-26 57 -26 122q0 165 132.5 314.5z" />
<glyph unicode="r" horiz-adv-x="1054" d="M154 326q45 207 59 301q14 88 21.5 113.5t25.5 39.5q25 23 53 23q23 0 49 -15q49 -25 50 -98q0 -31 -6 -63q-2 -18 -5.5 -40t-5.5 -33t-2 -19q0 -16 8 -17q6 0 39 23q76 51 171.5 83.5t170.5 32.5q45 0 80 -14q37 -14 59.5 -47t22.5 -66q0 -41 -29 -61q-29 -23 -61 -23 q-25 0 -55 13q-18 6 -31 6q-23 0 -86 -21q-109 -35 -185.5 -104.5t-162.5 -216.5q-55 -94 -78 -109q-20 -12 -51 -12q-43 0 -72 29q-22 26 -22 58q0 56 43 237z" />
<glyph unicode="s" horiz-adv-x="970" d="M113 139q0 37 34 66q23 20 52 20q35 0 110 -35q141 -67 229 -67h3q76 0 123 51q12 14 12 35q0 55 -127 201q-121 139 -121 243q0 49 23 86q20 39 74.5 78t101.5 51q49 12 88 13q80 0 108 -56q12 -25 13 -37q0 -16 -9 -32q-27 -63 -100 -64q-33 0 -72 -18.5t-39 -32.5 q0 -10 54 -78q133 -168 163.5 -223t30.5 -133q0 -115 -84 -191q-90 -82 -233 -82q-131 0 -287 68q-147 63 -147 137z" />
<glyph unicode="t" horiz-adv-x="1073" d="M117 758q0 43 35 71q25 20 127 21h96l6 55q2 12 5 49t8 91.5t9 95.5q14 150 25.5 199t36.5 65q23 14 51 14q41 0 66 -26q26 -26 26 -76q0 -26 -14 -164q-16 -147 -23 -213l-6 -82l97 6q53 4 63 4q37 0 61 -12q49 -25 50 -82q0 -45 -33 -72q-25 -18 -131 -26l-111 -8 q-2 -2 -6 -199v-70q0 -119 12.5 -171t46.5 -85q18 -18 25.5 -19t26.5 11q41 29 102 131q51 84 104 84q14 0 23 -2q68 -16 68 -88q0 -39 -54 -123q-63 -104 -118.5 -148t-128.5 -55q-2 0 -10.5 -1t-10.5 -1q-74 0 -140.5 56.5t-105.5 152.5q-14 41 -18 86t-8 203l-4 229h-84 q-131 0 -156 62q-8 16 -8 37z" />
<glyph unicode="u" horiz-adv-x="1013" d="M111 393q0 29 4 90q16 147 28 202.5t37 80.5q29 29 62 29q31 0 59 -29q25 -25 25 -55q0 -27 -2 -47q-4 -102 -17 -187q-6 -55 -6 -98q0 -104 51 -182q49 -74 111 -74q57 0 100 72q63 109 127 395q31 133 50.5 163.5t76.5 30.5q27 0 50.5 -20.5t32.5 -50.5v-4q2 -4 3 -7 q0 -41 -31.5 -175t-66.5 -238q-61 -188 -140 -270t-200 -82q-135 0 -227 98q-127 135 -127 358z" />
<glyph unicode="v" horiz-adv-x="843" d="M109 555q0 119 11 158t52 55q27 10 39 10q14 0 43 -12q41 -18 52 -62.5t13 -187.5v-51q4 -150 19 -154q2 0 5 2t7 5.5t8 8.5t10.5 12t11.5 14t13 18.5t14.5 20.5t16.5 24.5t18 27.5q80 117 116 155t73 38q16 0 24 -2q33 -8 54.5 -37t21.5 -61v-11q-4 -31 -143 -242.5 t-189 -263.5q-71 -77 -130 -77h-1q-31 0 -64.5 25.5t-49.5 58.5q-16 35 -30.5 200.5t-14.5 327.5z" />
<glyph unicode="w" horiz-adv-x="1380" d="M111 666l26 32q27 33 53 37q2 0 7.5 1t7.5 1q27 0 51.5 -15t34.5 -38q10 -33 14 -252q4 -152 7 -192.5t18 -65.5q25 -39 59 -41h6l148 133q49 88 70.5 117t56.5 45q31 14 47 14q14 0 33 -6q35 -10 56 -34.5t71 -112.5q57 -98 67 -103h2q27 0 94 308q39 168 53.5 209 t43.5 57q18 10 43 10q33 0 60.5 -22.5t27.5 -55.5q0 -45 -37 -222t-64 -257q-78 -236 -213 -236q-25 0 -49 7q-35 10 -80 51t-75 92q-27 47 -33 47t-49 -65q-109 -164 -277 -168q-90 0 -157.5 53t-98.5 147q-12 43 -18 285z" />
<glyph unicode="x" horiz-adv-x="952" d="M113 741q0 72 55 95q16 6 31 6q63 0 92 -72q8 -25 62.5 -117t58.5 -92q2 0 37 49q55 78 114 78q27 0 56.5 -29.5t29.5 -58.5q-2 -31 -13 -54.5t-56 -80.5q-45 -59 -45 -72q0 -16 147 -219q90 -123 123 -178t33 -84q0 -23 -23 -49q-29 -29 -65 -29q-39 0 -77 40t-149 194 l-110 155l-27 -37q-23 -31 -51 -98q-27 -63 -50.5 -84.5t-60.5 -21.5q-72 0 -88 67q-2 4 -2 17q0 63 94 221l62 106l-70 111q-59 92 -90 155q-18 43 -18 82z" />
<glyph unicode="y" horiz-adv-x="1165" d="M117 -152q0 45 24 74q25 31 60 31q33 0 59.5 -28.5t26.5 -71.5q0 -23 34.5 -62t73.5 -59q35 -18 72 -19q4 0 15.5 1t17.5 1q80 4 136 42t112 118q66 98 105.5 228t39.5 241q0 41 -6 78q-10 59 -30.5 132t-27.5 73q-8 0 -36 -43q-53 -76 -132 -119t-157 -43q-74 0 -123 41 q-92 76 -92 264q0 31 2 45q6 103 67 113h11q53 0 75 -33q14 -20 15 -98q0 -129 33 -156q14 -10 49 0q63 20 161 150q47 66 78 81q29 14 58 15q119 0 192 -283q29 -102 29 -221q0 -215 -93.5 -423t-228.5 -298l-45 -29h-403l-47 39q-57 45 -91 105.5t-34 113.5z" />
<glyph unicode="z" horiz-adv-x="1089" d="M115 324q0 37 30 67q23 23 43.5 27t118.5 4h131l35 92q41 109 41 158q0 27 -14 33q-4 2 -23 2q-43 0 -90 -9q-78 -8 -80 -8q-23 0 -43 10q-27 14 -36 31.5t-9 54.5q0 111 254 111h8q125 0 189 -92q29 -41 28 -96v-35q0 -90 -22 -156q-20 -66 -20.5 -67.5t3.5 -1.5 q23 0 91 10q124 24 149 24h2q20 0 47 -26q33 -33 33 -68q0 -70 -107 -98q-59 -16 -178 -31q-117 -14 -127 -24q-8 -8 -52 -121t-44 -123t10 -10q18 0 183 55q182 59 196 59q25 0 55.5 -30.5t30.5 -61.5q0 -74 -168 -129q-256 -88 -344 -88q-47 0 -80 18q-71 36 -71 143 q0 105 67 267q2 2 2 8q0 10 -75 10q-127 0 -154 52q-10 20 -10 39z" />
<glyph unicode="&#xa0;" />
<glyph unicode="&#x2000;" horiz-adv-x="817" />
<glyph unicode="&#x2001;" horiz-adv-x="1634" />
<glyph unicode="&#x2002;" horiz-adv-x="817" />
<glyph unicode="&#x2003;" horiz-adv-x="1634" />
<glyph unicode="&#x2004;" horiz-adv-x="544" />
<glyph unicode="&#x2005;" horiz-adv-x="408" />
<glyph unicode="&#x2006;" horiz-adv-x="272" />
<glyph unicode="&#x2007;" horiz-adv-x="272" />
<glyph unicode="&#x2008;" horiz-adv-x="204" />
<glyph unicode="&#x2009;" horiz-adv-x="326" />
<glyph unicode="&#x200a;" horiz-adv-x="90" />
<glyph unicode="&#x202f;" horiz-adv-x="326" />
<glyph unicode="&#x205f;" horiz-adv-x="408" />
<glyph unicode="&#x25fc;" horiz-adv-x="839" d="M0 0v840h840v-840h-840z" />
</font>
</defs>
</svg>
